<svg width="23" height="18" viewBox="0 0 23 18" fill="none" xmlns="http://www.w3.org/2000/svg">
<path d="M15.2922 0.397705C19.0049 0.397886 22.0157 2.77936 22.0158 5.71606V12.0989C22.0156 15.0355 19.0048 17.4171 15.2922 17.4172H7.22287C3.51021 17.4171 0.499489 15.0355 0.499237 12.0989V5.71606C0.499365 2.77932 3.51014 0.397812 7.22287 0.397705H15.2922ZM7.22287 1.99341C4.6277 1.99347 2.51613 3.66334 2.51584 5.71606V12.0989C2.51593 14.1517 4.62757 15.8215 7.22287 15.8215H15.2912C17.8866 15.8215 19.9982 14.1518 19.9983 12.0989V5.71606C19.998 3.6633 17.8865 1.99341 15.2912 1.99341H7.22287Z" fill="white"/>
<path d="M11.2573 4.65259C14.2279 4.65259 16.6362 6.55774 16.6362 8.90747C16.6362 11.2572 14.2279 13.1624 11.2573 13.1624C8.28683 13.1623 5.87845 11.2571 5.87842 8.90747C5.87842 6.55778 8.28681 4.65265 11.2573 4.65259ZM11.2573 6.24829C9.40422 6.24829 7.89502 7.44062 7.89502 8.90747C7.89511 10.3732 9.40428 11.5666 11.2573 11.5667C13.1104 11.5667 14.6195 10.3732 14.6196 8.90747C14.6196 7.44062 13.1104 6.24829 11.2573 6.24829Z" fill="white"/>
<ellipse cx="17.0399" cy="4.33279" rx="0.716817" ry="0.566435" fill="white"/>
</svg>
