<svg width="25" height="17" viewBox="0 0 25 17" fill="none" xmlns="http://www.w3.org/2000/svg">
<path d="M24.35 2.72657C23.4529 3.04397 22.497 3.25436 21.5004 3.35651C22.5257 2.86277 23.3082 2.08689 23.676 1.15171C22.7202 1.6114 21.6647 1.9361 20.54 2.1173C19.6323 1.33777 18.3387 0.85498 16.9275 0.85498C14.1895 0.85498 11.9852 2.64752 11.9852 4.84502C11.9852 5.16121 12.0184 5.46523 12.0998 5.75467C7.98822 5.59293 4.35009 4.00348 1.90607 1.58221C1.47939 2.17932 1.22911 2.86277 1.22911 3.59851C1.22911 4.98001 2.11112 6.20463 3.42585 6.91361C2.63128 6.90145 1.85179 6.71539 1.19141 6.42231C1.19141 6.43447 1.19141 6.45028 1.19141 6.46609C1.19141 8.40456 2.90569 10.0147 5.1537 10.3856C4.75114 10.4744 4.31239 10.5169 3.85706 10.5169C3.54044 10.5169 3.2208 10.5023 2.92077 10.4488C3.56155 12.0286 5.37986 13.1899 7.54193 13.2276C5.85931 14.2893 3.72287 14.929 1.41003 14.929C1.00445 14.929 0.615463 14.9144 0.226471 14.8742C2.41719 16.0137 5.01348 16.6643 7.81332 16.6643C16.9139 16.6643 21.8894 10.5838 21.8894 5.31322C21.8894 5.13689 21.8819 4.96663 21.8713 4.79759C22.8528 4.23575 23.6776 3.53406 24.35 2.72657Z" fill="white"/>
</svg>
